<?xml version="1.0" encoding="utf-8"?>
<!-- Generator: Adobe Illustrator 26.3.1, SVG Export Plug-In . SVG Version: 6.00 Build 0)  -->
<svg version="1.1" id="Layer_1" xmlns="http://www.w3.org/2000/svg" xmlns:xlink="http://www.w3.org/1999/xlink" x="0px" y="0px"
	 viewBox="0 0 411 137" style="enable-background:new 0 0 411 137;" xml:space="preserve">
<style type="text/css">
	.st0{fill:#7342D6;}
	.st1{stroke:#000000;stroke-width:2;stroke-miterlimit:10;}
</style>
<path class="st0" d="M2.5,49.5c0,0.1,0,0.1-0.1,0.2C2.5,49.6,2.5,49.5,2.5,49.5z M2.5,49.4c0,0.1,0,0.6,0.2,1.2
	c0.3,1.2,1.2,2.3,2.3,3l44.4,27c-0.1-0.4-0.1-0.9-0.1-1.3c0-4.4,1.9-7.4,6.3-10.1l42.3-25.8c0.6-0.3,0.6-0.9,0.6-1.1
	s-0.1-0.8-0.6-1.1L52.9,13.8L7.6,41.5c-3.7,2.2-5.1,4.4-5.1,7.8C2.5,49.3,2.5,49.3,2.5,49.4z M55.1,86.3c-0.9,0-1.8-0.2-2.7-0.8
	c-0.2-0.1-0.3-0.2-0.5-0.3L3.7,55.8c-1.7-1-2.9-2.7-3.4-4.6C0,50.3,0,49.7,0,49.2c0-4.3,1.9-7.3,6.3-10l46-28c0.4-0.2,0.9-0.2,1.2,0
	l45.5,27.7c1.2,0.7,1.9,2,1.9,3.4s-0.7,2.7-1.9,3.4L56.8,71.5c-3.7,2.2-5.1,4.4-5.1,7.8c0,1.6,0.6,3,1.6,3.8c0,0,0,0,0.1,0.1
	c0.1,0.1,0.2,0.1,0.3,0.2c1,0.6,2.2,0.5,3.4-0.2l42.8-26l-3.5-2.4c-0.6-0.4-0.7-1.2-0.4-1.8c0.4-0.6,1.1-0.8,1.7-0.4l5.2,3.6
	c0.4,0.2,0.6,0.7,0.6,1.1c0,0.5-0.2,0.9-0.6,1.1L58.3,85.3C57.2,85.9,56.1,86.3,55.1,86.3z"/>
<path class="st0" d="M75.9,102.8c-0.4,0-0.8-0.2-1.1-0.7c-0.3-0.6-0.1-1.4,0.5-1.8l24.5-15L96.3,83c-0.6-0.4-0.7-1.2-0.4-1.8
	c0.4-0.6,1.1-0.8,1.7-0.4l5.2,3.6c0.4,0.2,0.6,0.7,0.6,1.1c0,0.5-0.2,0.9-0.6,1.1l-26.3,16C76.3,102.8,76.1,102.8,75.9,102.8z"/>
<path class="st0" d="M2.5,77.9c0,0.1,0,0.1-0.1,0.2C2.5,78.1,2.5,78,2.5,77.9z M52.6,113.8c-0.2,0-0.4-0.1-0.6-0.2L3.7,84.3
	c-1.7-1-2.9-2.7-3.4-4.6C0,78.8,0,78.1,0,77.7c0-4.3,1.9-7.3,6.3-10l2.1-1.4c0.6-0.4,1.4-0.2,1.7,0.4c0.4,0.6,0.2,1.4-0.4,1.8
	l-2.1,1.5c0,0,0,0-0.1,0c-3.7,2.2-5.1,4.4-5.1,7.8c0,0,0,0.1,0,0.1c0,0.1,0,0.6,0.2,1.2C3,80.2,3.8,81.3,5,82l48.3,29.4
	c0.6,0.4,0.8,1.2,0.4,1.8C53.5,113.6,53.1,113.8,52.6,113.8z"/>
<path class="st0" d="M67.4,118.1c-0.2,0-0.4-0.1-0.6-0.2c-0.4-0.2-0.6-0.7-0.6-1.1V109l-7.8,4.7c-2,1.2-4.1,1.3-5.9,0.2
	c-1.9-1.2-3.2-3.6-3.2-6.3c0-4.4,1.9-7.4,6.3-10.1l42.3-25.8c0.6-0.3,0.6-0.9,0.6-1.1c0-0.2-0.1-0.8-0.6-1.1
	c-0.6-0.4-0.8-1.2-0.5-1.8c0.3-0.6,1.1-0.8,1.7-0.5c1.2,0.7,1.9,2,1.9,3.4c0,1.4-0.7,2.7-1.9,3.4L56.8,99.9
	c-3.7,2.2-5.1,4.4-5.1,7.8c0,1.7,0.7,3.3,1.9,4c1,0.6,2.2,0.5,3.4-0.2l9.7-5.8c0.4-0.2,0.9-0.2,1.2,0c0.4,0.2,0.6,0.7,0.6,1.1v7.8
	l6-3.8v-9.2c0-1.8-0.9-3.5-2.4-4.4c-0.6-0.4-0.8-1.2-0.5-1.8c0.3-0.6,1.1-0.8,1.7-0.5c2.3,1.4,3.7,3.9,3.7,6.7v10
	c0,0.5-0.2,0.9-0.6,1.1L68,118C67.8,118.1,67.6,118.1,67.4,118.1z"/>
<path class="st0" d="M45.2,64c-0.2,0-0.4-0.1-0.6-0.2L6.3,41.5c-0.6-0.4-0.8-1.2-0.5-1.8c0.3-0.6,1.1-0.9,1.7-0.5l38.2,22.4
	c0.6,0.4,0.8,1.2,0.5,1.8C46,63.8,45.6,64,45.2,64z"/>
<g>
	<g>
		<path class="st1" d="M123.1,47.8h12.2c6.7,0,10.3,3.5,10.3,8.6c0,4.2-2.5,6.9-5.4,7.7c2.5,0.7,6.7,3.1,6.7,8.7
			c0,7-5.3,10.1-11.4,10.1h-12.4V47.8z M134.4,62.8c6.1,0,8.4-2.2,8.4-6.3c0-3.5-2.4-6.3-7.3-6.3h-9.7v12.6H134.4z M125.8,80.3h9.9
			c4.6,0,8.5-2.3,8.5-7.5c0-4.5-2.9-7.5-9.9-7.5h-8.4V80.3z"/>
		<path class="st1" d="M183.9,65c0,9.6-5.1,18.3-15.9,18.3c-9.9,0-15.6-8-15.6-18c0-9.9,5.6-18,16-18
			C177.9,47.3,183.9,54.8,183.9,65z M155.3,65.1c0,8.1,4.5,15.7,12.9,15.7c9.1,0,12.9-7.4,12.9-15.7c0-8.2-4.3-15.3-12.8-15.3
			C159.2,49.8,155.3,57.2,155.3,65.1z"/>
		<path class="st1" d="M221,65c0,9.6-5.1,18.3-15.9,18.3c-9.9,0-15.6-8-15.6-18c0-9.9,5.6-18,16-18C215,47.3,221,54.8,221,65z
			 M192.4,65.1c0,8.1,4.5,15.7,12.9,15.7c9.1,0,12.9-7.4,12.9-15.7c0-8.2-4.3-15.3-12.8-15.3C196.3,49.8,192.4,57.2,192.4,65.1z"/>
		<path class="st1" d="M228.7,47.8h2.7V66c2.8-2.7,12.8-12.1,19.1-18.2h3.6l-15.7,14.9l16.6,20.1h-3.4l-15.2-18.4l-5,4.4v14h-2.7
			V47.8z"/>
		<path class="st1" d="M265.5,82.8l-9.7-35h2.8c2.3,8.4,7.7,27.8,8.5,31.9h0c0.7-3.2,6.4-22.6,8.9-31.9h3c2.3,8.6,7.9,29.1,8.5,31.8
			h0c1.1-5,7-23.5,9.4-31.8h2.8l-10.7,35h-3.1c-2.3-8.3-7.8-28.5-8.4-31.5h0c-0.9,4.6-6.3,22.8-8.8,31.5H265.5z"/>
		<path class="st1" d="M308.3,47.8v35h-2.7v-35H308.3z"/>
		<path class="st1" d="M318.4,73.4c1,4.6,4.2,7.4,9.9,7.4c6.4,0,8.9-3.2,8.9-7c0-4-1.8-6.4-9.5-8.3c-7.4-1.9-10.6-4.2-10.6-9.3
			c0-4.6,3.3-8.9,10.9-8.9c7.7,0,11,4.7,11.4,9h-2.8c-0.8-3.8-3.3-6.5-8.8-6.5c-5,0-7.8,2.4-7.8,6.3c0,3.9,2.3,5.4,8.8,7
			c9.9,2.5,11.3,6.4,11.3,10.6c0,5.2-3.8,9.6-11.9,9.6c-8.8,0-12-5.1-12.6-9.8H318.4z"/>
		<path class="st1" d="M368,65.6h-17.9v14.7h19.6l-0.4,2.5h-21.9v-35h21.5v2.5h-18.8v12.8H368V65.6z"/>
	</g>
</g>
<g>
	<g>
	</g>
</g>
<g>
	<g>
	</g>
</g>
</svg>
